<svg xmlns="http://www.w3.org/2000/svg" viewBox="0 0 14 12"><defs><style>.cls-1{fill:#231e2b;}.cls-2{fill:#e2b436;}.cls-3{fill:#f5f38e;}.cls-4{fill:#cf8934;}</style></defs><g id="图层_2" data-name="图层 2"><g id="Layer_1" data-name="Layer 1"><polygon class="cls-1" points="14 1 12 1 12 2 13 2 13 11 1 11 1 2 2 2 2 1 0 1 0 12 14 12 14 1"/><rect class="cls-2" x="1" y="10" width="12" height="1"/><rect class="cls-3" x="1" y="9" width="12" height="1"/><rect class="cls-4" x="1" y="8" width="12" height="1"/><rect class="cls-3" x="9" y="5" width="1" height="1"/><rect class="cls-4" x="8" y="5" width="1" height="1"/><rect class="cls-4" x="5" y="5" width="1" height="1"/><rect class="cls-3" x="4" y="5" width="1" height="1"/><rect class="cls-3" x="10" y="4" width="1" height="1"/><polygon class="cls-1" points="9 5 10 5 10 4 11 4 11 3 9 3 9 5"/><rect class="cls-3" x="8" y="3" width="1" height="2"/><rect class="cls-3" x="5" y="3" width="1" height="2"/><rect class="cls-3" x="3" y="4" width="1" height="1"/><polygon class="cls-2" points="12 4 11 4 11 5 10 5 10 6 8 6 8 2 7 2 7 3 6 3 6 6 4 6 4 5 3 5 3 4 2 4 2 3 1 3 1 8 13 8 13 3 12 3 12 4"/><rect class="cls-3" x="11" y="3" width="1" height="1"/><polygon class="cls-1" points="4 4 4 5 5 5 5 3 3 3 3 4 4 4"/><rect class="cls-3" x="2" y="3" width="1" height="1"/><rect class="cls-3" x="12" y="2" width="1" height="1"/><rect class="cls-1" x="11" y="2" width="1" height="1"/><polygon class="cls-3" points="7 2 8 2 8 1 6 1 6 3 7 3 7 2"/><rect class="cls-1" x="5" y="1" width="1" height="2"/><rect class="cls-1" x="2" y="2" width="1" height="1"/><rect class="cls-3" x="1" y="2" width="1" height="1"/><rect class="cls-1" x="8" y="1" width="1" height="2"/><rect class="cls-1" x="6" width="2" height="1"/></g></g></svg>